<svg width="542" height="159" viewBox="0 0 542 159" fill="none" xmlns="http://www.w3.org/2000/svg">
<path d="M142.501 21L7.50112 156H534L399 21H142.501Z" fill="white" stroke="black" stroke-width="6"/>
<path d="M142.501 2L7.50112 137H534L399 2H142.501Z" fill="black" stroke="black" stroke-width="4"/>
<path d="M316.819 33.642C316.489 32.6696 316.096 32.4137 315.481 32.1705C314.137 31.6715 311.86 32.4265 311.86 32.4265C311.86 32.4265 231.251 61.4465 226.646 64.6581C225.655 65.3491 225.322 65.7585 225.158 66.2319C224.361 68.5095 226.842 69.5204 226.842 69.5204L247.618 76.3019C247.618 76.3019 248.393 76.4171 248.669 76.238C253.395 73.2438 296.223 46.1687 298.692 45.2602C299.082 45.1451 299.371 45.2731 299.294 45.5418C298.305 49.0221 261.108 82.1239 261.108 82.1239C261.108 82.1239 260.966 82.303 260.877 82.5077L260.828 82.4821L258.89 103.121C258.89 103.121 258.077 109.442 264.39 103.121C268.845 98.6555 273.155 94.9193 275.312 93.1151C282.456 98.0541 290.144 103.518 293.462 106.371C295.129 107.804 296.523 108.035 297.67 107.996C300.82 107.881 301.699 104.413 301.699 104.413C301.699 104.413 316.388 45.2091 316.879 37.2759C316.928 36.4954 316.994 36.0092 316.999 35.4718C317.008 34.7296 316.939 33.9875 316.819 33.642Z" fill="#56AE59"/>
</svg>
